# xmcd
#
# Track frame offsets: 
#        150
#        11877
#        22216
#        37767
#        52236
#        64002
#        78092
#        95345
#        111838
#        124534
#        141671
#        156532
#        173226
#        189012
#        203382
#        215541
#        230246
#        244084
#        260204
#        275356
#        291289
#        305888
#
# Disc length: 4254 seconds
#
# Revision: 0
# Processed by: cddbd v1.5.2PL0 Copyright (c) Steve Scherf et al.
# Submitted via: ExactAudioCopy v0.95b4
#
DISCID=4c109c16
DTITLE=GENE WATSON - 40 GREATEST HITS D1
DYEAR=1900
DGENRE=COUNTRY
TTITLE0=FOURTEEN CARAT MIND
TTITLE1=SPEAK SOFTLY YOU'RE TALKING TO MY HEART
TTITLE2=ONE AND ONE AND ONE
TTITLE3=ALL MY TOMORROWS
TTITLE4=I DON'T THINK SHE'D REALLY MIND AT ALL
TTITLE5=LET'S GIVE IT UP OR GET IT ON
TTITLE6=A WAY TO SURVIVE
TTITLE7=GETTING OVER YOU AGAIN
TTITLE8=HOLD THAT THOUGHT
TTITLE9=CLASS REUNION
TTITLE10=IN OTHER WORDS
TTITLE11=MIRRORS DON'T LIE
TTITLE12=MR CANDYMAN
TTITLE13=SHAKE THE HAND OF THE MAN
TTITLE14=SHE'S NO LADY
TTITLE15=SOMEONE'S CHILD
TTITLE16=WHOSE FOOL I WANNA BE
TTITLE17=WINDS OF CHANGE
TTITLE18=COULDN'T LOVE HAVE PICKED A BETTER PLACE TO DIE
TTITLE19=JUST IN CASE
TTITLE20=LOVE'S TOMBSTONE
TTITLE21=BOOKED TONIGHT IN HEAVEN
EXTD=
EXTT0=
EXTT1=
EXTT2=
EXTT3=
EXTT4=
EXTT5=
EXTT6=
EXTT7=
EXTT8=
EXTT9=
EXTT10=
EXTT11=
EXTT12=
EXTT13=
EXTT14=
EXTT15=
EXTT16=
EXTT17=
EXTT18=
EXTT19=
EXTT20=
EXTT21=
PLAYORDER=
